<?plantuml 1.2026.2?><svg xmlns="http://www.w3.org/2000/svg" xmlns:xlink="http://www.w3.org/1999/xlink" contentStyleType="text/css" data-diagram-type="SEQUENCE" height="1337px" preserveAspectRatio="none" style="width:1490px;height:1337px;background:#FFFFFF;" version="1.1" viewBox="0 0 1490 1337" width="1490px" zoomAndPan="magnify"><title>Openpress &#8212; Shopping Cart Checkout Flow</title><defs/><g><text fill="#000000" font-family="sans-serif" font-size="14" font-weight="bold" lengthAdjust="spacing" textLength="301.0688" x="595.6717" y="29.9659">Openpress &#8212; Shopping Cart Checkout Flow</text><rect fill="none" height="322.0421" style="stroke:#000000;stroke-width:1.5;" width="1473.4121" x="10" y="915.0802"/><g class="participant-lifeline" data-entity-uid="part1" data-qualified-name="user" id="part1-lifeline"><g><title>User</title><rect fill="#000000" fill-opacity="0.00000" height="1129.9865" width="8" x="34.3089" y="124.1358"/><line style="stroke:#181818;stroke-width:0.5;stroke-dasharray:5,5;" x1="38" x2="38" y1="124.1358" y2="1254.1223"/></g></g><g class="participant-lifeline" data-entity-uid="part2" data-qualified-name="cart" id="part2-lifeline"><g><title>CartController</title><rect fill="#000000" fill-opacity="0.00000" height="1129.9865" width="8" x="299.3032" y="124.1358"/><line style="stroke:#181818;stroke-width:0.5;stroke-dasharray:5,5;" x1="302.4454" x2="302.4454" y1="124.1358" y2="1254.1223"/></g></g><g class="participant-lifeline" data-entity-uid="part3" data-qualified-name="order" id="part3-lifeline"><g><title>OrderController</title><rect fill="#000000" fill-opacity="0.00000" height="1129.9865" width="8" x="422.7518" y="124.1358"/><line style="stroke:#181818;stroke-width:0.5;stroke-dasharray:5,5;" x1="426.161" x2="426.161" y1="124.1358" y2="1254.1223"/></g></g><g class="participant-lifeline" data-entity-uid="part4" data-qualified-name="csvc" id="part4-lifeline"><g><title>CartService</title><rect fill="#000000" fill-opacity="0.00000" height="1129.9865" width="8" x="536.4635" y="124.1358"/><line style="stroke:#181818;stroke-width:0.5;stroke-dasharray:5,5;" x1="540.3426" x2="540.3426" y1="124.1358" y2="1254.1223"/></g></g><g class="participant-lifeline" data-entity-uid="part5" data-qualified-name="osvc" id="part5-lifeline"><g><title>OrderService</title><rect fill="#000000" fill-opacity="0.00000" height="1129.9865" width="8" x="708.9756" y="124.1358"/><line style="stroke:#181818;stroke-width:0.5;stroke-dasharray:5,5;" x1="712.1218" x2="712.1218" y1="124.1358" y2="1254.1223"/></g></g><g class="participant-lifeline" data-entity-uid="part6" data-qualified-name="prepo" id="part6-lifeline"><g><title>ProductRepository</title><rect fill="#000000" fill-opacity="0.00000" height="1129.9865" width="8" x="939.3638" y="124.1358"/><line style="stroke:#181818;stroke-width:0.5;stroke-dasharray:5,5;" x1="943.2611" x2="943.2611" y1="124.1358" y2="1254.1223"/></g></g><g class="participant-lifeline" data-entity-uid="part7" data-qualified-name="crepo" id="part7-lifeline"><g><title>CartRepository</title><rect fill="#000000" fill-opacity="0.00000" height="1129.9865" width="8" x="1073.4594" y="124.1358"/><line style="stroke:#181818;stroke-width:0.5;stroke-dasharray:5,5;" x1="1076.4666" x2="1076.4666" y1="124.1358" y2="1254.1223"/></g></g><g class="participant-lifeline" data-entity-uid="part8" data-qualified-name="orepo" id="part8-lifeline"><g><title>OrderRepository</title><rect fill="#000000" fill-opacity="0.00000" height="1129.9865" width="8" x="1201.178" y="124.1358"/><line style="stroke:#181818;stroke-width:0.5;stroke-dasharray:5,5;" x1="1204.4522" x2="1204.4522" y1="124.1358" y2="1254.1223"/></g></g><g class="participant-lifeline" data-entity-uid="part9" data-qualified-name="db" id="part9-lifeline"><g><title>Database</title><rect fill="#000000" fill-opacity="0.00000" height="1129.9865" width="8" x="1435.3882" y="124.1358"/><line style="stroke:#181818;stroke-width:0.5;stroke-dasharray:5,5;" x1="1439.3643" x2="1439.3643" y1="124.1358" y2="1254.1223"/></g></g><g class="participant participant-head" data-entity-uid="part1" data-qualified-name="user" id="part1-head"><text fill="#000000" font-family="sans-serif" font-size="14" lengthAdjust="spacing" textLength="30.6179" x="20" y="120.0339">User</text><ellipse cx="38.3089" cy="53.5679" fill="#E2E2F0" rx="8" ry="8" style="stroke:#181818;stroke-width:0.5;"/><path d="M38.3089,61.5679 L38.3089,88.5679 M25.3089,69.5679 L51.3089,69.5679 M38.3089,88.5679 L25.3089,103.5679 M38.3089,88.5679 L51.3089,103.5679" fill="none" style="stroke:#181818;stroke-width:0.5;"/></g><g class="participant participant-tail" data-entity-uid="part1" data-qualified-name="user" id="part1-tail"><text fill="#000000" font-family="sans-serif" font-size="14" lengthAdjust="spacing" textLength="30.6179" x="20" y="1268.0882">User</text><ellipse cx="38.3089" cy="1280.6902" fill="#E2E2F0" rx="8" ry="8" style="stroke:#181818;stroke-width:0.5;"/><path d="M38.3089,1288.6902 L38.3089,1315.6902 M25.3089,1296.6902 L51.3089,1296.6902 M38.3089,1315.6902 L25.3089,1330.6902 M38.3089,1315.6902 L51.3089,1330.6902" fill="none" style="stroke:#181818;stroke-width:0.5;"/></g><g class="participant participant-head" data-entity-uid="part2" data-qualified-name="cart" id="part2-head"><rect fill="#FEF2F2" height="33.0679" rx="2.5" ry="2.5" style="stroke:#181818;stroke-width:0.5;" width="107.7157" x="249.4454" y="90.0679"/><text fill="#000000" font-family="sans-serif" font-size="14" lengthAdjust="spacing" textLength="93.7157" x="256.4454" y="112.0339">CartController</text></g><g class="participant participant-tail" data-entity-uid="part2" data-qualified-name="cart" id="part2-tail"><rect fill="#FEF2F2" height="33.0679" rx="2.5" ry="2.5" style="stroke:#181818;stroke-width:0.5;" width="107.7157" x="249.4454" y="1253.1223"/><text fill="#000000" font-family="sans-serif" font-size="14" lengthAdjust="spacing" textLength="93.7157" x="256.4454" y="1275.0882">CartController</text></g><g class="participant participant-head" data-entity-uid="part3" data-qualified-name="order" id="part3-head"><rect fill="#FEF2F2" height="33.0679" rx="2.5" ry="2.5" style="stroke:#181818;stroke-width:0.5;" width="119.1816" x="367.161" y="90.0679"/><text fill="#000000" font-family="sans-serif" font-size="14" lengthAdjust="spacing" textLength="105.1816" x="374.161" y="112.0339">OrderController</text></g><g class="participant participant-tail" data-entity-uid="part3" data-qualified-name="order" id="part3-tail"><rect fill="#FEF2F2" height="33.0679" rx="2.5" ry="2.5" style="stroke:#181818;stroke-width:0.5;" width="119.1816" x="367.161" y="1253.1223"/><text fill="#000000" font-family="sans-serif" font-size="14" lengthAdjust="spacing" textLength="105.1816" x="374.161" y="1275.0882">OrderController</text></g><g class="participant participant-head" data-entity-uid="part4" data-qualified-name="csvc" id="part4-head"><rect fill="#FFF7ED" height="33.0679" rx="2.5" ry="2.5" style="stroke:#181818;stroke-width:0.5;" width="88.2417" x="496.3426" y="90.0679"/><text fill="#000000" font-family="sans-serif" font-size="14" lengthAdjust="spacing" textLength="74.2417" x="503.3426" y="112.0339">CartService</text></g><g class="participant participant-tail" data-entity-uid="part4" data-qualified-name="csvc" id="part4-tail"><rect fill="#FFF7ED" height="33.0679" rx="2.5" ry="2.5" style="stroke:#181818;stroke-width:0.5;" width="88.2417" x="496.3426" y="1253.1223"/><text fill="#000000" font-family="sans-serif" font-size="14" lengthAdjust="spacing" textLength="74.2417" x="503.3426" y="1275.0882">CartService</text></g><g class="participant participant-head" data-entity-uid="part5" data-qualified-name="osvc" id="part5-head"><rect fill="#FFF7ED" height="33.0679" rx="2.5" ry="2.5" style="stroke:#181818;stroke-width:0.5;" width="99.7077" x="663.1218" y="90.0679"/><text fill="#000000" font-family="sans-serif" font-size="14" lengthAdjust="spacing" textLength="85.7077" x="670.1218" y="112.0339">OrderService</text></g><g class="participant participant-tail" data-entity-uid="part5" data-qualified-name="osvc" id="part5-tail"><rect fill="#FFF7ED" height="33.0679" rx="2.5" ry="2.5" style="stroke:#181818;stroke-width:0.5;" width="99.7077" x="663.1218" y="1253.1223"/><text fill="#000000" font-family="sans-serif" font-size="14" lengthAdjust="spacing" textLength="85.7077" x="670.1218" y="1275.0882">OrderService</text></g><g class="participant participant-head" data-entity-uid="part6" data-qualified-name="prepo" id="part6-head"><rect fill="#EFF6FF" height="33.0679" rx="2.5" ry="2.5" style="stroke:#181818;stroke-width:0.5;" width="136.2056" x="875.2611" y="90.0679"/><text fill="#000000" font-family="sans-serif" font-size="14" lengthAdjust="spacing" textLength="122.2056" x="882.2611" y="112.0339">ProductRepository</text></g><g class="participant participant-tail" data-entity-uid="part6" data-qualified-name="prepo" id="part6-tail"><rect fill="#EFF6FF" height="33.0679" rx="2.5" ry="2.5" style="stroke:#181818;stroke-width:0.5;" width="136.2056" x="875.2611" y="1253.1223"/><text fill="#000000" font-family="sans-serif" font-size="14" lengthAdjust="spacing" textLength="122.2056" x="882.2611" y="1275.0882">ProductRepository</text></g><g class="participant participant-head" data-entity-uid="part7" data-qualified-name="crepo" id="part7-head"><rect fill="#EFF6FF" height="33.0679" rx="2.5" ry="2.5" style="stroke:#181818;stroke-width:0.5;" width="111.9856" x="1021.4666" y="90.0679"/><text fill="#000000" font-family="sans-serif" font-size="14" lengthAdjust="spacing" textLength="97.9856" x="1028.4666" y="112.0339">CartRepository</text></g><g class="participant participant-tail" data-entity-uid="part7" data-qualified-name="crepo" id="part7-tail"><rect fill="#EFF6FF" height="33.0679" rx="2.5" ry="2.5" style="stroke:#181818;stroke-width:0.5;" width="111.9856" x="1021.4666" y="1253.1223"/><text fill="#000000" font-family="sans-serif" font-size="14" lengthAdjust="spacing" textLength="97.9856" x="1028.4666" y="1275.0882">CartRepository</text></g><g class="participant participant-head" data-entity-uid="part8" data-qualified-name="orepo" id="part8-head"><rect fill="#EFF6FF" height="33.0679" rx="2.5" ry="2.5" style="stroke:#181818;stroke-width:0.5;" width="123.4516" x="1143.4522" y="90.0679"/><text fill="#000000" font-family="sans-serif" font-size="14" lengthAdjust="spacing" textLength="109.4516" x="1150.4522" y="112.0339">OrderRepository</text></g><g class="participant participant-tail" data-entity-uid="part8" data-qualified-name="orepo" id="part8-tail"><rect fill="#EFF6FF" height="33.0679" rx="2.5" ry="2.5" style="stroke:#181818;stroke-width:0.5;" width="123.4516" x="1143.4522" y="1253.1223"/><text fill="#000000" font-family="sans-serif" font-size="14" lengthAdjust="spacing" textLength="109.4516" x="1150.4522" y="1275.0882">OrderRepository</text></g><g class="participant participant-head" data-entity-uid="part9" data-qualified-name="db" id="part9-head"><text fill="#000000" font-family="sans-serif" font-size="14" lengthAdjust="spacing" textLength="62.0478" x="1405.3643" y="120.0339">Database</text><path d="M1421.3882,69.0679 C1421.3882,59.0679 1439.3882,59.0679 1439.3882,59.0679 C1439.3882,59.0679 1457.3882,59.0679 1457.3882,69.0679 L1457.3882,95.0679 C1457.3882,105.0679 1439.3882,105.0679 1439.3882,105.0679 C1439.3882,105.0679 1421.3882,105.0679 1421.3882,95.0679 L1421.3882,69.0679" fill="#FAF5FF" style="stroke:#181818;stroke-width:0.5;"/><path d="M1421.3882,69.0679 C1421.3882,79.0679 1439.3882,79.0679 1439.3882,79.0679 C1439.3882,79.0679 1457.3882,79.0679 1457.3882,69.0679" fill="none" style="stroke:#181818;stroke-width:0.5;"/></g><g class="participant participant-tail" data-entity-uid="part9" data-qualified-name="db" id="part9-tail"><text fill="#000000" font-family="sans-serif" font-size="14" lengthAdjust="spacing" textLength="62.0478" x="1405.3643" y="1268.0882">Database</text><path d="M1421.3882,1282.1902 C1421.3882,1272.1902 1439.3882,1272.1902 1439.3882,1272.1902 C1439.3882,1272.1902 1457.3882,1272.1902 1457.3882,1282.1902 L1457.3882,1308.1902 C1457.3882,1318.1902 1439.3882,1318.1902 1439.3882,1318.1902 C1439.3882,1318.1902 1421.3882,1318.1902 1421.3882,1308.1902 L1421.3882,1282.1902" fill="#FAF5FF" style="stroke:#181818;stroke-width:0.5;"/><path d="M1421.3882,1282.1902 C1421.3882,1292.1902 1439.3882,1292.1902 1439.3882,1292.1902 C1439.3882,1292.1902 1457.3882,1292.1902 1457.3882,1282.1902" fill="none" style="stroke:#181818;stroke-width:0.5;"/></g><g class="message" data-entity-1="part1" data-entity-2="part2" id="msg1"><polygon fill="#181818" points="291.3032,153.8419,301.3032,157.8419,291.3032,161.8419,295.3032,157.8419" style="stroke:#181818;stroke-width:1;"/><line style="stroke:#181818;stroke-width:1;" x1="38.3089" x2="297.3032" y1="157.8419" y2="157.8419"/><text fill="#000000" font-family="sans-serif" font-size="13" lengthAdjust="spacing" textLength="240.9942" x="45.3089" y="152.0328">POST /cart/items { productId, quantity }</text></g><g class="message" data-entity-1="part2" data-entity-2="part4" id="msg2"><polygon fill="#181818" points="528.4635,185.5479,538.4635,189.5479,528.4635,193.5479,532.4635,189.5479" style="stroke:#181818;stroke-width:1;"/><line style="stroke:#181818;stroke-width:1;" x1="303.3032" x2="534.4635" y1="189.5479" y2="189.5479"/><text fill="#000000" font-family="sans-serif" font-size="13" lengthAdjust="spacing" textLength="204.7502" x="310.3032" y="183.7389">addToCart(userId, productId, qty)</text></g><g class="message" data-entity-1="part4" data-entity-2="part6" id="msg3"><polygon fill="#181818" points="931.3638,217.2539,941.3638,221.2539,931.3638,225.2539,935.3638,221.2539" style="stroke:#181818;stroke-width:1;"/><line style="stroke:#181818;stroke-width:1;" x1="540.4635" x2="937.3638" y1="221.2539" y2="221.2539"/><text fill="#000000" font-family="sans-serif" font-size="13" lengthAdjust="spacing" textLength="119.7301" x="547.4635" y="215.4449">findById(productId)</text></g><g class="message" data-entity-1="part6" data-entity-2="part9" id="msg4"><polygon fill="#181818" points="1427.3882,248.9599,1437.3882,252.9599,1427.3882,256.9599,1431.3882,252.9599" style="stroke:#181818;stroke-width:1;"/><line style="stroke:#181818;stroke-width:1;" x1="943.3638" x2="1433.3882" y1="252.9599" y2="252.9599"/><text fill="#000000" font-family="sans-serif" font-size="13" lengthAdjust="spacing" textLength="152.3472" x="950.3638" y="247.1509">SELECT * FROM products</text></g><g class="message" data-entity-1="part9" data-entity-2="part6" id="msg5"><polygon fill="#181818" points="954.3638,280.6659,944.3638,284.6659,954.3638,288.6659,950.3638,284.6659" style="stroke:#181818;stroke-width:1;"/><line style="stroke:#181818;stroke-width:1;stroke-dasharray:2,2;" x1="948.3638" x2="1438.3882" y1="284.6659" y2="284.6659"/><text fill="#000000" font-family="sans-serif" font-size="13" lengthAdjust="spacing" textLength="48.0611" x="960.3638" y="278.8569">Product</text></g><g class="message" data-entity-1="part6" data-entity-2="part4" id="msg6"><polygon fill="#181818" points="551.4635,312.3719,541.4635,316.3719,551.4635,320.3719,547.4635,316.3719" style="stroke:#181818;stroke-width:1;"/><line style="stroke:#181818;stroke-width:1;stroke-dasharray:2,2;" x1="545.4635" x2="942.3638" y1="316.3719" y2="316.3719"/><text fill="#000000" font-family="sans-serif" font-size="13" lengthAdjust="spacing" textLength="48.0611" x="557.4635" y="310.5629">Product</text></g><g class="message" data-entity-1="part4" data-entity-2="part7" id="msg7"><polygon fill="#181818" points="1065.4594,344.0779,1075.4594,348.0779,1065.4594,352.0779,1069.4594,348.0779" style="stroke:#181818;stroke-width:1;"/><line style="stroke:#181818;stroke-width:1;" x1="540.4635" x2="1071.4594" y1="348.0779" y2="348.0779"/><text fill="#000000" font-family="sans-serif" font-size="13" lengthAdjust="spacing" textLength="189.3062" x="547.4635" y="342.2689">addItem(cartId, productId, qty)</text></g><g class="message" data-entity-1="part7" data-entity-2="part9" id="msg8"><polygon fill="#181818" points="1427.3882,375.784,1437.3882,379.784,1427.3882,383.784,1431.3882,379.784" style="stroke:#181818;stroke-width:1;"/><line style="stroke:#181818;stroke-width:1;" x1="1077.4594" x2="1433.3882" y1="379.784" y2="379.784"/><text fill="#000000" font-family="sans-serif" font-size="13" lengthAdjust="spacing" textLength="145.5221" x="1084.4594" y="373.975">INSERT INTO cart_items</text></g><g class="message" data-entity-1="part9" data-entity-2="part7" id="msg9"><polygon fill="#181818" points="1088.4594,407.49,1078.4594,411.49,1088.4594,415.49,1084.4594,411.49" style="stroke:#181818;stroke-width:1;"/><line style="stroke:#181818;stroke-width:1;stroke-dasharray:2,2;" x1="1082.4594" x2="1438.3882" y1="411.49" y2="411.49"/><text fill="#000000" font-family="sans-serif" font-size="13" lengthAdjust="spacing" textLength="54.158" x="1094.4594" y="405.681">CartItem</text></g><g class="message" data-entity-1="part4" data-entity-2="part2" id="msg10"><polygon fill="#181818" points="314.3032,439.196,304.3032,443.196,314.3032,447.196,310.3032,443.196" style="stroke:#181818;stroke-width:1;"/><line style="stroke:#181818;stroke-width:1;stroke-dasharray:2,2;" x1="308.3032" x2="539.4635" y1="443.196" y2="443.196"/><text fill="#000000" font-family="sans-serif" font-size="13" lengthAdjust="spacing" textLength="54.158" x="320.3032" y="437.387">CartItem</text></g><g class="message" data-entity-1="part2" data-entity-2="part1" id="msg11"><polygon fill="#181818" points="49.3089,470.902,39.3089,474.902,49.3089,478.902,45.3089,474.902" style="stroke:#181818;stroke-width:1;"/><line style="stroke:#181818;stroke-width:1;stroke-dasharray:2,2;" x1="43.3089" x2="302.3032" y1="474.902" y2="474.902"/><text fill="#000000" font-family="sans-serif" font-size="13" lengthAdjust="spacing" textLength="73.918" x="55.3089" y="469.093">201 Created</text></g><g class="message" data-entity-1="part1" data-entity-2="part3" id="msg12"><polygon fill="#181818" points="414.7518,502.608,424.7518,506.608,414.7518,510.608,418.7518,506.608" style="stroke:#181818;stroke-width:1;"/><line style="stroke:#181818;stroke-width:1;" x1="38.3089" x2="420.7518" y1="506.608" y2="506.608"/><text fill="#000000" font-family="sans-serif" font-size="13" lengthAdjust="spacing" textLength="140.9721" x="45.3089" y="500.799">POST /orders/checkout</text></g><g class="message" data-entity-1="part3" data-entity-2="part5" id="msg13"><polygon fill="#181818" points="700.9756,534.314,710.9756,538.314,700.9756,542.314,704.9756,538.314" style="stroke:#181818;stroke-width:1;"/><line style="stroke:#181818;stroke-width:1;" x1="426.7518" x2="706.9756" y1="538.314" y2="538.314"/><text fill="#000000" font-family="sans-serif" font-size="13" lengthAdjust="spacing" textLength="102.5441" x="433.7518" y="532.505">checkout(userId)</text></g><g class="message" data-entity-1="part5" data-entity-2="part4" id="msg14"><polygon fill="#181818" points="551.4635,566.0201,541.4635,570.0201,551.4635,574.0201,547.4635,570.0201" style="stroke:#181818;stroke-width:1;"/><line style="stroke:#181818;stroke-width:1;" x1="545.4635" x2="711.9756" y1="570.0201" y2="570.0201"/><text fill="#000000" font-family="sans-serif" font-size="13" lengthAdjust="spacing" textLength="148.5121" x="557.4635" y="564.2111">getOrCreateCart(userId)</text></g><g class="message" data-entity-1="part4" data-entity-2="part7" id="msg15"><polygon fill="#181818" points="1065.4594,597.7261,1075.4594,601.7261,1065.4594,605.7261,1069.4594,601.7261" style="stroke:#181818;stroke-width:1;"/><line style="stroke:#181818;stroke-width:1;" x1="540.4635" x2="1071.4594" y1="601.7261" y2="601.7261"/><text fill="#000000" font-family="sans-serif" font-size="13" lengthAdjust="spacing" textLength="98.6311" x="547.4635" y="595.9171">getItems(cartId)</text></g><g class="message" data-entity-1="part7" data-entity-2="part9" id="msg16"><polygon fill="#181818" points="1427.3882,629.4321,1437.3882,633.4321,1427.3882,637.4321,1431.3882,633.4321" style="stroke:#181818;stroke-width:1;"/><line style="stroke:#181818;stroke-width:1;" x1="1077.4594" x2="1433.3882" y1="633.4321" y2="633.4321"/><text fill="#000000" font-family="sans-serif" font-size="13" lengthAdjust="spacing" textLength="161.0572" x="1084.4594" y="627.6231">SELECT * FROM cart_items</text></g><g class="message" data-entity-1="part9" data-entity-2="part7" id="msg17"><polygon fill="#181818" points="1088.4594,661.1381,1078.4594,665.1381,1088.4594,669.1381,1084.4594,665.1381" style="stroke:#181818;stroke-width:1;"/><line style="stroke:#181818;stroke-width:1;stroke-dasharray:2,2;" x1="1082.4594" x2="1438.3882" y1="665.1381" y2="665.1381"/><text fill="#000000" font-family="sans-serif" font-size="13" lengthAdjust="spacing" textLength="90.1161" x="1094.4594" y="659.3291">List&lt;CartItem&gt;</text></g><g class="message" data-entity-1="part7" data-entity-2="part4" id="msg18"><polygon fill="#181818" points="551.4635,692.8441,541.4635,696.8441,551.4635,700.8441,547.4635,696.8441" style="stroke:#181818;stroke-width:1;"/><line style="stroke:#181818;stroke-width:1;stroke-dasharray:2,2;" x1="545.4635" x2="1076.4594" y1="696.8441" y2="696.8441"/><text fill="#000000" font-family="sans-serif" font-size="13" lengthAdjust="spacing" textLength="90.1161" x="557.4635" y="691.0351">List&lt;CartItem&gt;</text></g><g class="message" data-entity-1="part5" data-entity-2="part8" id="msg19"><polygon fill="#181818" points="1193.178,724.5501,1203.178,728.5501,1193.178,732.5501,1197.178,728.5501" style="stroke:#181818;stroke-width:1;"/><line style="stroke:#181818;stroke-width:1;" x1="712.9756" x2="1199.178" y1="728.5501" y2="728.5501"/><text fill="#000000" font-family="sans-serif" font-size="13" lengthAdjust="spacing" textLength="158.3387" x="719.9756" y="722.7411">create(cartItems &#8594; Order)</text></g><g class="message" data-entity-1="part8" data-entity-2="part9" id="msg20"><polygon fill="#181818" points="1427.3882,756.2562,1437.3882,760.2562,1427.3882,764.2562,1431.3882,760.2562" style="stroke:#181818;stroke-width:1;"/><line style="stroke:#181818;stroke-width:1;" x1="1205.178" x2="1433.3882" y1="760.2562" y2="760.2562"/><text fill="#000000" font-family="sans-serif" font-size="13" lengthAdjust="spacing" textLength="210.2102" x="1212.178" y="754.4472">INSERT INTO orders + order_items</text></g><g class="message" data-entity-1="part9" data-entity-2="part8" id="msg21"><polygon fill="#181818" points="1216.178,787.9622,1206.178,791.9622,1216.178,795.9622,1212.178,791.9622" style="stroke:#181818;stroke-width:1;"/><line style="stroke:#181818;stroke-width:1;stroke-dasharray:2,2;" x1="1210.178" x2="1438.3882" y1="791.9622" y2="791.9622"/><text fill="#000000" font-family="sans-serif" font-size="13" lengthAdjust="spacing" textLength="36.218" x="1222.178" y="786.1532">Order</text></g><g class="message" data-entity-1="part5" data-entity-2="part5" id="msg22"><line style="stroke:#181818;stroke-width:1;" x1="712.9756" x2="754.9756" y1="823.6682" y2="823.6682"/><line style="stroke:#181818;stroke-width:1;" x1="754.9756" x2="754.9756" y1="823.6682" y2="836.6682"/><line style="stroke:#181818;stroke-width:1;" x1="713.9756" x2="754.9756" y1="836.6682" y2="836.6682"/><polygon fill="#181818" points="723.9756,832.6682,713.9756,836.6682,723.9756,840.6682,719.9756,836.6682" style="stroke:#181818;stroke-width:1;"/><text fill="#000000" font-family="sans-serif" font-size="13" lengthAdjust="spacing" textLength="87.0871" x="719.9756" y="817.8592">Calculate total</text></g><g class="message" data-entity-1="part5" data-entity-2="part6" id="msg23"><polygon fill="#181818" points="931.3638,864.3742,941.3638,868.3742,931.3638,872.3742,935.3638,868.3742" style="stroke:#181818;stroke-width:1;"/><line style="stroke:#181818;stroke-width:1;" x1="712.9756" x2="937.3638" y1="868.3742" y2="868.3742"/><text fill="#000000" font-family="sans-serif" font-size="13" lengthAdjust="spacing" textLength="206.3882" x="719.9756" y="862.5652">updateStock(productId, -quantity)</text></g><g class="message" data-entity-1="part6" data-entity-2="part9" id="msg24"><polygon fill="#181818" points="1427.3882,896.0802,1437.3882,900.0802,1427.3882,904.0802,1431.3882,900.0802" style="stroke:#181818;stroke-width:1;"/><line style="stroke:#181818;stroke-width:1;" x1="943.3638" x2="1433.3882" y1="900.0802" y2="900.0802"/><text fill="#000000" font-family="sans-serif" font-size="13" lengthAdjust="spacing" textLength="230.4902" x="950.3638" y="894.2712">UPDATE products SET stock = stock - ?</text></g><path d="M10,915.0802 L72.303,915.0802 L72.303,924.7862 L62.303,934.7862 L10,934.7862 L10,915.0802" fill="#EEEEEE" style="stroke:#000000;stroke-width:1.5;"/><rect fill="none" height="322.0421" style="stroke:#000000;stroke-width:1.5;" width="1473.4121" x="10" y="915.0802"/><text fill="#000000" font-family="sans-serif" font-size="13" font-weight="bold" lengthAdjust="spacing" textLength="17.303" x="25" y="929.9772">alt</text><text fill="#000000" font-family="sans-serif" font-size="11" font-weight="bold" lengthAdjust="spacing" textLength="100.6933" x="87.303" y="928.8391">[Payment success]</text><g class="message" data-entity-1="part5" data-entity-2="part8" id="msg25"><polygon fill="#181818" points="1193.178,954.4923,1203.178,958.4923,1193.178,962.4923,1197.178,958.4923" style="stroke:#181818;stroke-width:1;"/><line style="stroke:#181818;stroke-width:1;" x1="712.9756" x2="1199.178" y1="958.4923" y2="958.4923"/><text fill="#000000" font-family="sans-serif" font-size="13" lengthAdjust="spacing" textLength="201.3312" x="719.9756" y="952.6833">createPayment(orderId, amount)</text></g><g class="message" data-entity-1="part8" data-entity-2="part9" id="msg26"><polygon fill="#181818" points="1427.3882,986.1983,1437.3882,990.1983,1427.3882,994.1983,1431.3882,990.1983" style="stroke:#181818;stroke-width:1;"/><line style="stroke:#181818;stroke-width:1;" x1="1205.178" x2="1433.3882" y1="990.1983" y2="990.1983"/><text fill="#000000" font-family="sans-serif" font-size="13" lengthAdjust="spacing" textLength="142.7531" x="1212.178" y="984.3893">INSERT INTO payments</text></g><g class="message" data-entity-1="part9" data-entity-2="part8" id="msg27"><polygon fill="#181818" points="1216.178,1017.9043,1206.178,1021.9043,1216.178,1025.9043,1212.178,1021.9043" style="stroke:#181818;stroke-width:1;"/><line style="stroke:#181818;stroke-width:1;stroke-dasharray:2,2;" x1="1210.178" x2="1438.3882" y1="1021.9043" y2="1021.9043"/><text fill="#000000" font-family="sans-serif" font-size="13" lengthAdjust="spacing" textLength="54.002" x="1222.178" y="1016.0953">Payment</text></g><g class="message" data-entity-1="part5" data-entity-2="part4" id="msg28"><polygon fill="#181818" points="551.4635,1049.6103,541.4635,1053.6103,551.4635,1057.6103,547.4635,1053.6103" style="stroke:#181818;stroke-width:1;"/><line style="stroke:#181818;stroke-width:1;" x1="545.4635" x2="711.9756" y1="1053.6103" y2="1053.6103"/><text fill="#000000" font-family="sans-serif" font-size="13" lengthAdjust="spacing" textLength="98.9561" x="557.4635" y="1047.8013">clearCart(cartId)</text></g><g class="message" data-entity-1="part4" data-entity-2="part7" id="msg29"><polygon fill="#181818" points="1065.4594,1081.3163,1075.4594,1085.3163,1065.4594,1089.3163,1069.4594,1085.3163" style="stroke:#181818;stroke-width:1;"/><line style="stroke:#181818;stroke-width:1;" x1="540.4635" x2="1071.4594" y1="1085.3163" y2="1085.3163"/><text fill="#000000" font-family="sans-serif" font-size="13" lengthAdjust="spacing" textLength="151.8792" x="547.4635" y="1079.5073">DELETE FROM cart_items</text></g><g class="message" data-entity-1="part5" data-entity-2="part3" id="msg30"><polygon fill="#181818" points="437.7518,1113.0223,427.7518,1117.0223,437.7518,1121.0223,433.7518,1117.0223" style="stroke:#181818;stroke-width:1;"/><line style="stroke:#181818;stroke-width:1;stroke-dasharray:2,2;" x1="431.7518" x2="711.9756" y1="1117.0223" y2="1117.0223"/><text fill="#000000" font-family="sans-serif" font-size="13" lengthAdjust="spacing" textLength="95.4461" x="443.7518" y="1111.2133">Order + Receipt</text></g><g class="message" data-entity-1="part3" data-entity-2="part1" id="msg31"><polygon fill="#181818" points="49.3089,1144.7284,39.3089,1148.7284,49.3089,1152.7284,45.3089,1148.7284" style="stroke:#181818;stroke-width:1;"/><line style="stroke:#181818;stroke-width:1;stroke-dasharray:2,2;" x1="43.3089" x2="425.7518" y1="1148.7284" y2="1148.7284"/><text fill="#000000" font-family="sans-serif" font-size="13" lengthAdjust="spacing" textLength="187.8631" x="55.3089" y="1142.9194">201 Created + { order, receipt }</text></g><line style="stroke:#000000;stroke-width:1;stroke-dasharray:2,2;" x1="10" x2="1483.4121" y1="1157.7284" y2="1157.7284"/><text fill="#000000" font-family="sans-serif" font-size="11" font-weight="bold" lengthAdjust="spacing" textLength="89.9903" x="15" y="1169.4873">[Payment failed]</text><g class="message" data-entity-1="part5" data-entity-2="part3" id="msg32"><polygon fill="#181818" points="437.7518,1193.4163,427.7518,1197.4163,437.7518,1201.4163,433.7518,1197.4163" style="stroke:#181818;stroke-width:1;"/><line style="stroke:#181818;stroke-width:1;stroke-dasharray:2,2;" x1="431.7518" x2="711.9756" y1="1197.4163" y2="1197.4163"/><text fill="#000000" font-family="sans-serif" font-size="13" lengthAdjust="spacing" textLength="113.6201" x="443.7518" y="1191.6073">PaymentException</text></g><g class="message" data-entity-1="part3" data-entity-2="part1" id="msg33"><polygon fill="#181818" points="49.3089,1225.1223,39.3089,1229.1223,49.3089,1233.1223,45.3089,1229.1223" style="stroke:#181818;stroke-width:1;"/><line style="stroke:#181818;stroke-width:1;stroke-dasharray:2,2;" x1="43.3089" x2="425.7518" y1="1229.1223" y2="1229.1223"/><text fill="#000000" font-family="sans-serif" font-size="13" lengthAdjust="spacing" textLength="138.5671" x="55.3089" y="1223.3133">402 Payment Required</text></g><?plantuml-src TLJBRjim4BphAnREnMvZE3Nw08msHIfBW86qCcpbND0Kan1HH8MaqXf1WPxw0KM_C5_IvKks5VbacfoTdHakfRak6MGrgsh9b8Bdt_zWVIlgcbSt41Ef8Rvbz4uq6j9I_8WYGhMGCBXIJ0w0A6Xm4TK8v9JNfD8mC5MngBGKPUb1r12Tf4awJQU7u4mMJ7RGmkprmmttcib7JfaZLeyKaMdw8Pdt4Ez3nL7eKegYeNh5Qg4ukjjQFEPH2pX9qlHzchvKqK7JusYhf0CN1_22QB8XYi5WxbSML6nGxqNw3X6HYHd6vpR96IopTGuJivvmpUuLFA5SQs9HdC93WtsvtiAlo0Ploj3y34XHvCA87new0zslqjjHPFD4l3K_WsjU5L-sYsBOuaQHomKnnMO6w-GoYNDu1Uag-nhOL8JAnpiMds-eREM4_T2KEZYgNA2feT7Ugt5VmEBREbdb-9DdDfllDeyWm3CQouRITsfZtEtRc73Vv3A3wTaRY2KZcXMxvErKXkZj7pMX_cr4RcGDoZeB-pxdKII2HNjymtGcNOEzsnXrWq2OKQTy4XtdXz4VzNx9bVuOZ9u7YbPAvpZe5AwOMesklvspvpz_mSupMZfs3IuRUEqMXw8yhwNODRDAObBIfiHse8KcPNlgXwYfyPMmjHRqRhWt4UCmx9t1l5hEB_AadKXCAmTbYk6J_nt3vuYK6fPaUy_mdQg6Klm2HW2z8NZOq9eodSczQ2ezClXZITIknd0U-lTaUxtSRT2I4Mb78bmvG6SevdZjQAnxwO5fDwWsOxo55QECrxQN6zA-CKVSapi_1UaAyEl1IlmcXNok2I_nFRniv079JyfgpKNLq-djsRJbMR67XajaObNn7m00?></g></svg>